<?xml version="1.0" encoding="iso-8859-1"?>
<!-- Uploaded to: SVG Repo, www.svgrepo.com, Generator: SVG Repo Mixer Tools -->
<svg fill="#000000" height="800px" width="800px" version="1.1" id="Layer_1" xmlns="http://www.w3.org/2000/svg" xmlns:xlink="http://www.w3.org/1999/xlink" 
	 viewBox="0 0 512.002 512.002" xml:space="preserve">
<g>
	<g>
		<path d="M441.619,1.162L187.294,55.661c-23.82,5.108-41.115,26.502-41.115,50.87c0,10.245,0,266.915,0,280.737
			c-14.946-9.076-32.985-13.988-52.021-13.988c-47.248,0-86.701,31.002-86.701,69.361c0,38.313,39.36,69.361,86.701,69.361
			c47.248,0,86.701-31.002,86.701-69.361c0-15.054,0-266.495,0-284.229l289.005-62.487v221.981
			c-14.946-9.076-32.985-13.988-52.021-13.988c-47.248,0-86.701,31.002-86.701,69.361c0,38.313,39.36,69.361,86.701,69.361
			c47.248,0,86.701-31.002,86.701-69.361c0-12.557,0-306.863,0-320.338v-0.909C504.545,18.982,474.125-5.739,441.619,1.162z"/>
	</g>
</g>
</svg>